{
	"asset":{
		"generator":"Khronos glTF Blender I/O v4.2.70",
		"version":"2.0"
	},
	"scene":0,
	"scenes":[
		{
			"name":"Scene",
			"nodes":[
				0
			]
		}
	],
	"nodes":[
		{
			"mesh":0,
			"name":"Glasses",
			"rotation":[
				0.7071068286895752,
				0,
				0,
				0.7071068286895752
			]
		}
	],
	"materials":[
		{
			"doubleSided":true,
			"name":"oculos",
			"pbrMetallicRoughness":{
				"baseColorTexture":{
					"index":0
				},
				"metallicFactor":0,
				"roughnessFactor":0.525658369064331
			}
		}
	],
	"meshes":[
		{
			"name":"Glasses",
			"primitives":[
				{
					"attributes":{
						"POSITION":0,
						"NORMAL":1,
						"TEXCOORD_0":2
					},
					"indices":3,
					"material":0
				}
			]
		}
	],
	"textures":[
		{
			"sampler":0,
			"source":0
		}
	],
	"images":[
		{
			"mimeType":"image/png",
			"name":"glasses",
			"uri":"glasses.png"
		}
	],
	"accessors":[
		{
			"bufferView":0,
			"componentType":5126,
			"count":1862,
			"max":[
				0.7782109975814819,
				0.48687300086021423,
				0.24887000024318695
			],
			"min":[
				-0.7687879800796509,
				-0.8681039810180664,
				-0.25847500562667847
			],
			"type":"VEC3"
		},
		{
			"bufferView":1,
			"componentType":5126,
			"count":1862,
			"type":"VEC3"
		},
		{
			"bufferView":2,
			"componentType":5126,
			"count":1862,
			"type":"VEC2"
		},
		{
			"bufferView":3,
			"componentType":5123,
			"count":8856,
			"type":"SCALAR"
		}
	],
	"bufferViews":[
		{
			"buffer":0,
			"byteLength":22344,
			"byteOffset":0,
			"target":34962
		},
		{
			"buffer":0,
			"byteLength":22344,
			"byteOffset":22344,
			"target":34962
		},
		{
			"buffer":0,
			"byteLength":14896,
			"byteOffset":44688,
			"target":34962
		},
		{
			"buffer":0,
			"byteLength":17712,
			"byteOffset":59584,
			"target":34963
		}
	],
	"samplers":[
		{
			"magFilter":9729,
			"minFilter":9987
		}
	],
	"buffers":[
		{
			"byteLength":77296,
			"uri":"untitled.bin"
		}
	]
}
